<svg width="26" height="26" viewBox="0 0 26 26" fill="none" xmlns="http://www.w3.org/2000/svg">
<path d="M0.357072 18.5051L2.39257 20.2137C3.29265 20.9693 4.5324 19.8223 3.84904 18.8663L3.56308 18.4662C3.44182 18.2966 3.37662 18.0933 3.37662 17.8847V16.4284C3.37662 16.2025 3.30017 15.9833 3.1597 15.8064L2.92865 15.5155C2.56419 15.0566 1.88505 15.008 1.45899 15.4104L0.313417 16.4922C0.11337 16.6811 0 16.9441 0 17.2193V17.7392C0 18.0347 0.130719 18.3151 0.357072 18.5051Z" fill="url(#paint0_linear_453_31)"/>
<path d="M19.4169 16.2592L19.2871 16.014C18.9496 15.3766 18.0688 15.2952 17.6202 15.86L13.8068 20.6617C13.6171 20.9005 13.3287 21.0397 13.0237 21.0397H12.882C12.5666 21.0397 12.2698 20.891 12.081 20.6385L3.798 9.55734C3.54524 9.2192 3.53206 8.75876 3.76506 8.40672L4.98076 6.56986C5.62259 5.60009 4.37163 4.50075 3.49237 5.26188L0.345511 7.98594C0.126083 8.17588 0 8.45179 0 8.74201V9.36546C0 9.58394 0.0715514 9.79641 0.203714 9.97038L12.0808 25.6048C12.2699 25.8537 12.5645 25.9999 12.8771 25.9999H12.9737C13.3067 25.9999 13.6179 25.8341 13.8037 25.5577L19.3631 17.2849C19.5687 16.9791 19.5893 16.5849 19.4169 16.2592Z" fill="url(#paint1_linear_453_31)"/>
<path d="M25.6429 7.49491L23.6074 5.78628C22.7074 5.03074 21.4676 6.17768 22.151 7.13372L22.4369 7.53378C22.5582 7.70343 22.6234 7.90675 22.6234 8.11529L22.6234 9.57163C22.6234 9.79749 22.6998 10.0167 22.8403 10.1936L23.0714 10.4845C23.4358 10.9434 24.115 10.992 24.541 10.5896L25.6866 9.5078C25.8866 9.31889 26 9.0559 26 8.78075L26 8.26083C26 7.96531 25.8693 7.68491 25.6429 7.49491Z" fill="url(#paint2_linear_453_31)"/>
<path d="M6.58309 9.74077L6.71292 9.98596C7.05041 10.6234 7.93119 10.7048 8.37976 10.14L12.1932 5.33833C12.3829 5.09947 12.6713 4.96026 12.9763 4.96026L13.118 4.96026C13.4334 4.96026 13.7302 5.10898 13.919 5.36154L22.202 16.4427C22.4548 16.7808 22.4679 17.2412 22.2349 17.5933L21.0192 19.4301C20.3774 20.3999 21.6284 21.4992 22.5076 20.7381L25.6545 18.0141C25.8739 17.8241 26 17.5482 26 17.258L26 16.6345C26 16.4161 25.9284 16.2036 25.7963 16.0296L13.9192 0.395169C13.7301 0.146258 13.4355 8.82775e-05 13.1229 8.82435e-05L13.0263 8.8233e-05C12.6933 8.81967e-05 12.3821 0.165892 12.1963 0.442315L6.63687 8.71507C6.43131 9.02094 6.41065 9.41508 6.58309 9.74077Z" fill="url(#paint3_linear_453_31)"/>
<defs>
<linearGradient id="paint0_linear_453_31" x1="0" y1="13.2452" x2="19.697" y2="13.2452" gradientUnits="userSpaceOnUse">
<stop stop-color="#7331FF"/>
<stop offset="1" stop-color="#B454FF"/>
</linearGradient>
<linearGradient id="paint1_linear_453_31" x1="0" y1="13.2452" x2="19.697" y2="13.2452" gradientUnits="userSpaceOnUse">
<stop stop-color="#7331FF"/>
<stop offset="1" stop-color="#B454FF"/>
</linearGradient>
<linearGradient id="paint2_linear_453_31" x1="26" y1="12.7548" x2="6.30303" y2="12.7548" gradientUnits="userSpaceOnUse">
<stop stop-color="#7331FF"/>
<stop offset="1" stop-color="#B454FF"/>
</linearGradient>
<linearGradient id="paint3_linear_453_31" x1="26" y1="12.7548" x2="6.30303" y2="12.7548" gradientUnits="userSpaceOnUse">
<stop stop-color="#7331FF"/>
<stop offset="1" stop-color="#B454FF"/>
</linearGradient>
</defs>
</svg>
