<svg width="14" height="14" viewBox="0 0 14 14" fill="none" xmlns="http://www.w3.org/2000/svg">
<path d="M11.3733 4.66027L7.0001 8.92327L2.62685 4.66027C2.54871 4.58395 2.44382 4.54122 2.3346 4.54122C2.22537 4.54122 2.12048 4.58395 2.04235 4.66027C2.00451 4.69733 1.97446 4.74158 1.95394 4.79041C1.93342 4.83924 1.92285 4.89167 1.92285 4.94464C1.92285 4.99761 1.93342 5.05004 1.95394 5.09887C1.97446 5.1477 2.00451 5.19195 2.04235 5.22902L6.69472 9.76502C6.77642 9.84465 6.886 9.88922 7.0001 9.88922C7.11419 9.88922 7.22377 9.84465 7.30547 9.76502L11.9578 5.22989C11.9959 5.19279 12.0262 5.14844 12.0469 5.09945C12.0676 5.05046 12.0782 4.99782 12.0782 4.94464C12.0782 4.89146 12.0676 4.83882 12.0469 4.78983C12.0262 4.74084 11.9959 4.69649 11.9578 4.65939C11.8797 4.58307 11.7748 4.54034 11.6656 4.54034C11.5564 4.54034 11.4515 4.58307 11.3733 4.65939V4.66027Z" fill="white"/>
</svg>
