<svg width="14" height="14" viewBox="0 0 14 14" fill="none" xmlns="http://www.w3.org/2000/svg">
<path d="M4.84629 6.65339V13.4616C4.8463 13.5534 4.86978 13.6437 4.91451 13.7239C4.95924 13.8041 5.02374 13.8715 5.10187 13.9197C5.17999 13.9679 5.26916 13.9954 5.36089 13.9995C5.45262 14.0035 5.54386 13.9841 5.62595 13.9429L8.85657 12.3276C8.9459 12.2828 9.021 12.2141 9.07349 12.1291C9.12599 12.0441 9.15379 11.9461 9.15379 11.8462V6.65339L13.878 0.880108C13.9229 0.825378 13.9565 0.762354 13.9769 0.694634C13.9974 0.626914 14.0044 0.555825 13.9974 0.485426C13.9904 0.415026 13.9696 0.346694 13.9362 0.284332C13.9027 0.22197 13.8574 0.166798 13.8027 0.121968C13.7479 0.0771374 13.6849 0.0435258 13.6172 0.0230522C13.5495 0.00257846 13.4784 -0.00435641 13.408 0.00264357C13.3376 0.00964355 13.2693 0.0304413 13.2069 0.0638493C13.1445 0.0972573 13.0894 0.142621 13.0445 0.197351L8.1986 6.12032C8.11981 6.21663 8.07681 6.33726 8.07692 6.4617V11.5134L5.92317 12.5904V6.4617C5.92327 6.33726 5.88027 6.21663 5.80148 6.12032L1.6749 1.07718H10.2307C10.3735 1.07718 10.5104 1.02045 10.6114 0.919472C10.7124 0.818493 10.7691 0.681536 10.7691 0.538729C10.7691 0.395923 10.7124 0.258966 10.6114 0.157987C10.5104 0.0570075 10.3735 0.000277839 10.2307 0.000277839H0.538797C0.436795 0.000209787 0.336871 0.0291178 0.25066 0.083636C0.164449 0.138154 0.0954972 0.21604 0.0518315 0.308225C0.00816579 0.400411 -0.0084171 0.503104 0.00401356 0.604349C0.0164442 0.705593 0.057377 0.801224 0.122046 0.880108L4.84629 6.65339Z" fill="white"/>
</svg>
